# xmcd CD database file
#
# Track frame offsets:
#	150
#	15840
#	26840
#	41707
#	60431
#	74066
#	93148
#	104846
#	123765
#	135268
#	148585
#
# Disc length: 2118 seconds
#
# Revision: 0
# Processed by: cddbd v1.5.1PL2 Copyright (c) Steve Scherf et al.
# Submitted via: CDex 1.51
#
DISCID=9108440b
DTITLE=Rusty Evans - I'm Comin' Home
DYEAR=2002
DGENRE=Country
TTITLE0=01 New Century Cowboy
TTITLE1=02 Travelin' Shoes
TTITLE2=03 Couple More Years
TTITLE3=04 Midnight Special
TTITLE4=05 Everybody's Talkin'
TTITLE5=06 Prettiest Train
TTITLE6=07 Lady Came From Baltimore
TTITLE7=08 I'm Comin' Home
TTITLE8=09 Singing the Blues
TTITLE9=10 I Can't Win For Nothin'
TTITLE10=11 When Mama Played (The Wildwood Flower)
EXTD=YEAR: 2002
EXTT0=
EXTT1=
EXTT2=
EXTT3=
EXTT4=
EXTT5=
EXTT6=
EXTT7=
EXTT8=
EXTT9=
EXTT10=
PLAYORDER=
